<svg width="34" height="34" viewBox="0 0 34 34" fill="none" xmlns="http://www.w3.org/2000/svg">
<circle cx="17" cy="17" r="17" fill="black"/>
<path d="M26.8192 22.2101L23.4852 25.785C23.413 25.8626 23.3257 25.9246 23.2286 25.967C23.1315 26.0094 23.0267 26.0314 22.9207 26.0315H7.11589C7.04051 26.0314 6.96678 26.0094 6.90372 25.9681C6.84067 25.9268 6.79102 25.868 6.76087 25.7989C6.73072 25.7298 6.72137 25.6534 6.73396 25.5791C6.74656 25.5048 6.78055 25.4357 6.83178 25.3804L10.1621 21.8056C10.2342 21.7279 10.3215 21.6659 10.4186 21.6235C10.5157 21.5811 10.6206 21.5592 10.7265 21.5591H26.5313C26.6074 21.5575 26.6822 21.5785 26.7464 21.6193C26.8106 21.6602 26.8614 21.7191 26.892 21.7887C26.9229 21.8583 26.9323 21.9355 26.9193 22.0104C26.9063 22.0854 26.8715 22.1549 26.8192 22.2101ZM23.4852 15.0095C23.4128 14.9322 23.3254 14.8705 23.2283 14.8281C23.1313 14.7857 23.0266 14.7636 22.9207 14.763H7.11589C7.04051 14.7631 6.96678 14.7851 6.90372 14.8264C6.84067 14.8677 6.79102 14.9265 6.76087 14.9956C6.73072 15.0647 6.72137 15.141 6.73396 15.2154C6.74656 15.2897 6.78055 15.3587 6.83178 15.414L10.1621 18.9908C10.2345 19.0681 10.3219 19.1298 10.4189 19.1722C10.516 19.2146 10.6206 19.2367 10.7265 19.2373H26.5313C26.6066 19.2369 26.68 19.2146 26.7428 19.1731C26.8057 19.1317 26.855 19.0729 26.8849 19.0039C26.9148 18.9349 26.924 18.8586 26.9112 18.7845C26.8986 18.7103 26.8647 18.6414 26.8136 18.5863L23.4852 15.0095ZM7.11589 12.4412H22.9207C23.0267 12.4411 23.1315 12.4192 23.2286 12.3767C23.3257 12.3344 23.413 12.2724 23.4852 12.1947L26.8192 8.61984C26.8715 8.56462 26.9063 8.49515 26.9193 8.42018C26.9323 8.3452 26.9229 8.26806 26.892 8.19847C26.8614 8.12888 26.8106 8.06995 26.7464 8.02909C26.6822 7.98823 26.6074 7.96726 26.5313 7.96883H10.7265C10.6206 7.96894 10.5157 7.99089 10.4186 8.03329C10.3215 8.0757 10.2342 8.13766 10.1621 8.21531L6.83178 11.7902C6.78055 11.8455 6.74656 11.9145 6.73396 11.9889C6.72137 12.0632 6.73072 12.1396 6.76087 12.2086C6.79102 12.2777 6.84067 12.3365 6.90372 12.3778C6.96678 12.4192 7.04051 12.4412 7.11589 12.4412Z" fill="url(#paint0_linear_9_4853)"/>
<defs>
<linearGradient id="paint0_linear_9_4853" x1="8.43296" y1="26.4623" x2="25.0054" y2="7.7788" gradientUnits="userSpaceOnUse">
<stop offset="0.08" stop-color="#9945FF"/>
<stop offset="0.3" stop-color="#8752F3"/>
<stop offset="0.5" stop-color="#5497D5"/>
<stop offset="0.6" stop-color="#43B4CA"/>
<stop offset="0.72" stop-color="#28E0B9"/>
<stop offset="0.97" stop-color="#19FB9B"/>
</linearGradient>
</defs>
</svg>
