<svg width="34" height="34" viewBox="0 0 34 34" fill="none" xmlns="http://www.w3.org/2000/svg">
<circle cx="17" cy="17" r="17" fill="#0098EA"/>
<path d="M22.7401 9.71436H11.2593C9.14837 9.71436 7.81043 11.9913 8.87243 13.8321L15.9579 26.1129C16.4203 26.9148 17.579 26.9148 18.0414 26.1129L25.1284 13.8321C26.1889 11.9943 24.851 9.71436 22.7415 9.71436H22.7401ZM15.9522 22.4301L14.4091 19.4437L10.6857 12.7846C10.4401 12.3584 10.7435 11.8122 11.2578 11.8122H15.9507V22.4315L15.9522 22.4301ZM23.3108 12.7831L19.5888 19.4451L18.0457 22.4301V11.8107H22.7386C23.253 11.8107 23.5564 12.3569 23.3108 12.7831Z" fill="white"/>
</svg>
