<svg width="12" height="12" viewBox="0 0 12 12" fill="none" xmlns="http://www.w3.org/2000/svg">
<path d="M6 1.875C4.96447 1.875 4.125 2.71447 4.125 3.75C4.125 4.78553 4.96447 5.625 6 5.625C7.03553 5.625 7.875 4.78553 7.875 3.75C7.875 2.71447 7.03553 1.875 6 1.875Z" fill="white"/>
<path d="M4 6.625C2.96447 6.625 2.125 7.46447 2.125 8.5V9.09414C2.125 9.47076 2.39794 9.79187 2.76964 9.85256C4.90905 10.2019 7.09095 10.2019 9.23036 9.85256C9.60206 9.79187 9.875 9.47076 9.875 9.09414V8.5C9.875 7.46447 9.03553 6.625 8 6.625H7.82957C7.73732 6.625 7.64565 6.63959 7.55796 6.66822L7.12521 6.80953C6.39406 7.04827 5.60594 7.04827 4.87479 6.80953L4.44204 6.66822C4.35435 6.63959 4.26268 6.625 4.17043 6.625H4Z" fill="white"/>
</svg>
